<svg width="24" height="24" viewBox="0 0 24 24" fill="none" xmlns="http://www.w3.org/2000/svg">
<path d="M5.57875 16.19C7.75312 17.853 9.91502 18.6845 12 18.6845C14.085 18.6845 16.2469 17.853 18.4213 16.19C19.6828 15.2156 20.825 14.0957 21.8242 12.8536C21.9381 12.7075 22 12.5275 22 12.3423C22 12.157 21.9381 11.977 21.8242 11.8309C20.825 10.5888 19.6828 9.46894 18.4213 8.4945C16.2469 6.8315 14.085 6 12 6C9.91502 6 7.75312 6.8315 5.57875 8.4945C4.31719 9.46894 3.17499 10.5888 2.17584 11.8309C2.06189 11.977 2 12.157 2 12.3423C2 12.5275 2.06189 12.7075 2.17584 12.8536C3.17499 14.0957 4.31719 15.2156 5.57875 16.19ZM12 6.82526C16.5379 6.82526 20.4231 11.3985 21.1694 12.3423C20.4231 13.2777 16.5379 17.8593 12 17.8593C7.46209 17.8593 3.56029 13.259 2.82649 12.3423C3.56029 11.4255 7.4517 6.82526 12 6.82526Z" fill="#444F60" stroke="#444F60" stroke-width="0.3"/>
<path d="M12 16.1401C12.7511 16.1401 13.4854 15.9174 14.11 15.5001C14.7345 15.0828 15.2213 14.4896 15.5088 13.7956C15.7962 13.1017 15.8714 12.338 15.7249 11.6013C15.5784 10.8646 15.2166 10.1879 14.6855 9.65676C14.1544 9.12562 13.4776 8.76391 12.7409 8.61736C12.0042 8.47082 11.2406 8.54603 10.5466 8.83348C9.85264 9.12094 9.2595 9.60772 8.84218 10.2323C8.42487 10.8568 8.20213 11.5911 8.20213 12.3423C8.20323 13.3492 8.60371 14.3145 9.31571 15.0265C10.0277 15.7385 10.9931 16.139 12 16.1401ZM12 9.37381C12.5866 9.37381 13.16 9.54773 13.6478 9.87359C14.1356 10.1994 14.5158 10.6626 14.7404 11.2045C14.9649 11.7464 15.0238 12.3428 14.9095 12.9181C14.7952 13.4935 14.5129 14.0221 14.0983 14.437C13.6836 14.8519 13.1553 15.1346 12.58 15.2493C12.0047 15.364 11.4083 15.3055 10.8663 15.0813C10.3242 14.8572 9.86076 14.4773 9.53456 13.9897C9.20836 13.5022 9.03404 12.9289 9.03362 12.3423C9.03472 11.5559 9.34761 10.802 9.90367 10.2459C10.4597 9.68987 11.2136 9.37699 12 9.37589V9.37381Z" fill="#444F60" stroke="#444F60" stroke-width="0.3"/>
<path d="M12 13.3297C12.5453 13.3297 12.9874 12.8876 12.9874 12.3423C12.9874 11.7969 12.5453 11.3549 12 11.3549C11.4547 11.3549 11.0126 11.7969 11.0126 12.3423C11.0126 12.8876 11.4547 13.3297 12 13.3297Z" fill="#444F60" stroke="#444F60" stroke-width="0.3"/>
</svg>
