<svg width="24" height="24" viewBox="0 0 24 24" fill="none" xmlns="http://www.w3.org/2000/svg">
<path d="M5.57875 16.19C7.75312 17.853 9.91502 18.6845 12 18.6845C14.085 18.6845 16.2469 17.853 18.4213 16.19C19.6828 15.2156 20.825 14.0957 21.8242 12.8536C21.9381 12.7075 22 12.5275 22 12.3423C22 12.157 21.9381 11.977 21.8242 11.8309C20.825 10.5888 19.6828 9.46894 18.4213 8.4945C16.2469 6.8315 14.085 6 12 6C9.91502 6 7.75312 6.8315 5.57875 8.4945C4.31719 9.46894 3.17499 10.5888 2.17584 11.8309C2.06189 11.977 2 12.157 2 12.3423C2 12.5275 2.06189 12.7075 2.17584 12.8536C3.17499 14.0957 4.31719 15.2156 5.57875 16.19ZM12 6.82526C16.5379 6.82526 20.4231 11.3985 21.1694 12.3423C20.4231 13.2777 16.5379 17.8593 12 17.8593C7.46209 17.8593 3.56029 13.259 2.82649 12.3423C3.56029 11.4255 7.4517 6.82526 12 6.82526Z" fill="#444F60" stroke="#444F60" stroke-width="0.3"/>
<path d="M12 16.1397C12.7511 16.1397 13.4854 15.9169 14.11 15.4996C14.7345 15.0823 15.2213 14.4892 15.5088 13.7952C15.7962 13.1012 15.8714 12.3376 15.7249 11.6009C15.5784 10.8642 15.2166 10.1875 14.6855 9.65632C14.1544 9.12518 13.4776 8.76346 12.7409 8.61692C12.0042 8.47038 11.2406 8.54559 10.5466 8.83304C9.85264 9.12049 9.2595 9.60728 8.84218 10.2318C8.42487 10.8564 8.20213 11.5907 8.20213 12.3418C8.20323 13.3487 8.60371 14.3141 9.31571 15.0261C10.0277 15.7381 10.9931 16.1386 12 16.1397ZM12 9.37337C12.5866 9.37337 13.16 9.54729 13.6478 9.87315C14.1356 10.199 14.5158 10.6622 14.7404 11.2041C14.9649 11.746 15.0238 12.3423 14.9095 12.9177C14.7952 13.4931 14.5129 14.0216 14.0983 14.4365C13.6836 14.8515 13.1553 15.1342 12.58 15.2489C12.0047 15.3636 11.4083 15.3051 10.8663 15.0809C10.3242 14.8567 9.86076 14.4768 9.53456 13.9893C9.20836 13.5017 9.03404 12.9284 9.03362 12.3418C9.03472 11.5554 9.34761 10.8016 9.90367 10.2455C10.4597 9.68943 11.2136 9.37655 12 9.37545V9.37337Z" fill="#444F60" stroke="#444F60" stroke-width="0.3"/>
<path d="M12 13.3293C12.5453 13.3293 12.9874 12.8872 12.9874 12.3419C12.9874 11.7966 12.5453 11.3545 12 11.3545C11.4547 11.3545 11.0126 11.7966 11.0126 12.3419C11.0126 12.8872 11.4547 13.3293 12 13.3293Z" fill="#444F60" stroke="#444F60" stroke-width="0.3"/>
</svg>
